<?xml version="1.0" standalone="no"?>
<!DOCTYPE svg PUBLIC "-//W3C//DTD SVG 20010904//EN"
 "http://www.w3.org/TR/2001/REC-SVG-20010904/DTD/svg10.dtd">
<svg version="1.0" xmlns="http://www.w3.org/2000/svg"
 width="240px" height="80px" viewBox="0 0 1500.000000 500.000000"
 preserveAspectRatio="xMidYMid meet">
<g transform="translate(0.000000,500.000000) scale(0.100000,-0.100000)"
fill="#000000" stroke="none">
<path d="M0 2500 l0 -2500 2500 0 2500 0 0 2500 0 2500 -2500 0 -2500 0 0
-2500z m4760 0 l0 -2260 -2260 0 -2260 0 0 2260 0 2260 2260 0 2260 0 0 -2260z"/>
<path d="M1374 3216 c-138 -32 -266 -107 -369 -218 -122 -132 -174 -258 -182
-449 -7 -146 13 -252 67 -364 116 -239 345 -386 625 -401 363 -20 669 196 756
533 23 93 25 266 4 368 -47 222 -239 432 -470 511 -70 24 -97 28 -225 31 -97
1 -165 -2 -206 -11z m352 -304 c231 -118 311 -440 163 -661 -150 -225 -435
-252 -613 -60 -91 98 -126 186 -126 319 0 195 120 370 293 426 27 9 75 13 132
11 78 -3 98 -8 151 -35z"/>
<path d="M2550 2500 l0 -700 160 0 160 0 1 423 1 422 181 -367 182 -368 98 0
99 0 183 373 184 372 0 -427 1 -428 160 0 160 0 0 700 0 700 -216 -2 -216 -3
-176 -373 c-96 -204 -178 -370 -181 -367 -3 3 -82 171 -177 373 l-171 367
-217 3 -216 2 0 -700z"/>
<path d="M6561 3739 c-34 -14 -50 -39 -51 -80 0 -47 33 -79 81 -79 87 0 114
122 34 156 -19 8 -36 14 -37 13 -2 0 -14 -5 -27 -10z"/>
<path d="M7791 3739 c-34 -14 -50 -39 -51 -80 0 -47 33 -79 81 -79 87 0 114
122 34 156 -19 8 -36 14 -37 13 -2 0 -14 -5 -27 -10z"/>
<path d="M6090 3615 l0 -114 -35 23 c-102 70 -246 21 -311 -104 -22 -43 -25
-158 -5 -214 17 -49 73 -112 125 -138 56 -29 141 -22 190 16 l36 27 0 -25 c0
-25 2 -26 70 -26 l70 0 0 335 0 335 -70 0 -70 0 0 -115z m-48 -210 c76 -70 48
-207 -48 -231 -25 -6 -70 14 -98 45 -24 26 -32 102 -16 141 29 70 111 93 162
45z"/>
<path d="M9480 3395 l0 -335 70 0 70 0 0 335 0 335 -70 0 -70 0 0 -335z"/>
<path d="M8210 3620 c0 -68 -1 -70 -25 -70 -24 0 -25 -3 -25 -55 0 -51 2 -55
24 -55 23 0 23 -1 28 -138 4 -122 7 -143 27 -176 28 -45 86 -76 143 -76 48 0
125 31 134 54 5 14 -28 90 -45 100 -5 3 -14 -1 -21 -9 -18 -22 -67 -19 -80 4
-5 11 -10 69 -10 130 l0 111 60 0 60 0 0 55 0 55 -60 0 -60 0 0 70 0 70 -75 0
-75 0 0 -70z"/>
<path d="M7108 3548 c-54 -14 -123 -79 -145 -136 -23 -60 -22 -164 2 -215 41
-88 122 -132 228 -125 51 3 72 10 101 32 l37 28 -7 -29 c-17 -72 -68 -107
-155 -107 -39 1 -68 8 -97 24 -23 13 -44 22 -46 19 -2 -2 -15 -27 -30 -56
l-26 -52 54 -26 c174 -85 373 -21 416 134 5 20 10 143 10 274 l0 237 -70 0
c-68 0 -70 -1 -70 -25 l0 -25 -37 24 c-44 29 -113 39 -165 24z m151 -134 c25
-18 51 -71 51 -105 0 -58 -56 -119 -110 -119 -100 0 -148 143 -71 212 37 33
93 38 130 12z"/>
<path d="M8900 3546 c-30 -6 -74 -22 -97 -35 -42 -24 -42 -25 -27 -51 9 -14
24 -36 33 -48 l16 -22 43 21 c65 32 125 36 151 10 39 -39 28 -48 -66 -53 -146
-7 -207 -52 -207 -151 0 -68 26 -113 84 -145 61 -32 156 -28 195 8 l25 23 0
-21 c0 -21 5 -22 70 -22 l70 0 0 173 c0 94 -5 189 -10 209 -14 50 -67 94 -130
107 -61 13 -79 13 -150 -3z"/>
<path d="M6520 3305 l0 -245 70 0 70 0 0 245 0 245 -70 0 -70 0 0 -245z"/>
<path d="M7750 3305 l0 -245 70 0 70 0 0 245 0 245 -70 0 -70 0 0 -245z"/>
<path d="M8170 2735 l0 -114 -35 23 c-102 70 -246 21 -311 -104 -22 -43 -25
-158 -5 -214 17 -49 73 -112 125 -138 56 -29 141 -22 190 16 l36 27 0 -25 c0
-25 2 -26 70 -26 l70 0 0 335 0 335 -70 0 -70 0 0 -115z m-48 -210 c76 -70 48
-207 -48 -231 -25 -6 -70 14 -98 45 -24 26 -32 102 -16 141 29 70 111 93 162
45z"/>
<path d="M11886 2820 c-45 -14 -95 -52 -108 -85 -20 -47 -15 -116 12 -160 21
-33 21 -38 7 -46 -123 -69 -144 -218 -44 -306 20 -18 56 -37 79 -44 61 -16
164 -7 217 20 l43 23 39 -38 c43 -42 35 -44 112 25 l27 25 -45 46 -45 45 25
50 c13 28 25 53 25 56 0 6 -103 79 -112 79 -4 0 -12 -16 -18 -35 -6 -19 -15
-35 -20 -35 -4 0 -19 15 -33 33 l-26 34 45 37 c60 50 77 87 71 150 -4 41 -11
55 -40 82 -53 49 -136 66 -211 44z m62 -439 l52 -59 -34 -16 c-40 -19 -57 -20
-89 -5 -22 10 -47 46 -47 69 0 11 50 70 59 70 5 0 31 -27 59 -59z"/>
<path d="M10090 2740 c0 -68 -1 -70 -25 -70 -24 0 -25 -3 -25 -55 0 -51 2 -55
24 -55 23 0 23 -1 28 -138 4 -122 7 -143 27 -176 28 -45 86 -76 143 -76 48 0
125 31 134 54 5 14 -28 90 -45 100 -5 3 -14 -1 -21 -9 -18 -22 -67 -19 -80 4
-5 11 -10 69 -10 130 l0 111 60 0 60 0 0 55 0 55 -60 0 -60 0 0 70 0 70 -75 0
-75 0 0 -70z"/>
<path d="M5981 2670 c-18 -4 -46 -18 -62 -29 l-29 -22 0 26 c0 24 -2 25 -70
25 l-70 0 0 -335 0 -335 70 0 70 0 0 116 0 116 30 -26 c58 -48 161 -48 228 0
170 122 131 410 -63 463 -45 12 -56 12 -104 1z m75 -135 c28 -19 54 -75 54
-117 0 -66 -72 -137 -124 -124 -96 24 -125 162 -49 232 30 28 87 32 119 9z"/>
<path d="M6785 2675 c-5 -2 -22 -6 -37 -9 -14 -3 -40 -18 -57 -32 l-31 -26 0
31 0 31 -70 0 -70 0 0 -245 0 -245 69 0 68 0 5 133 c6 174 25 213 108 224 l40
6 0 68 c0 38 -3 69 -7 68 -5 0 -12 -2 -18 -4z"/>
<path d="M7255 2674 c-90 -22 -151 -67 -186 -136 -60 -118 -17 -267 97 -334
66 -39 170 -45 242 -14 155 67 202 258 98 395 -46 60 -178 107 -251 89z m114
-149 c76 -64 56 -195 -33 -225 -46 -15 -80 -4 -116 36 -37 43 -41 110 -10 162
35 57 108 69 159 27z"/>
<path d="M9537 2670 c-128 -32 -209 -150 -194 -282 20 -170 210 -269 371 -193
29 13 63 36 76 50 l23 25 -29 37 c-47 57 -58 61 -89 30 -91 -91 -239 -3 -205
122 22 84 129 115 203 58 21 -15 41 -26 45 -23 4 2 22 24 39 49 l32 44 -22 21
c-54 51 -174 80 -250 62z"/>
<path d="M10774 2671 c-80 -20 -134 -81 -134 -151 0 -69 45 -112 155 -150 68
-23 85 -36 85 -61 0 -40 -84 -37 -164 6 l-45 24 -31 -42 c-16 -23 -29 -46 -27
-52 2 -5 30 -23 61 -39 110 -54 243 -46 307 20 26 27 33 43 37 87 8 94 -25
129 -158 172 -63 20 -85 37 -77 59 9 23 82 20 136 -4 24 -11 45 -19 46 -18 28
44 45 84 41 95 -15 37 -163 72 -232 54z"/>
<path d="M8602 2488 c4 -210 13 -241 81 -286 34 -23 52 -27 108 -27 54 0 73 4
98 23 30 22 31 22 31 2 0 -18 6 -20 75 -20 l75 0 0 245 0 245 -75 0 -75 0 0
-155 c0 -155 0 -155 -27 -185 -38 -42 -87 -44 -120 -6 -22 26 -23 34 -23 187
l0 159 -76 0 -76 0 4 -182z"/>
<path d="M10891 1979 c-34 -14 -50 -39 -51 -80 0 -47 33 -79 81 -79 87 0 114
122 34 156 -19 8 -36 14 -37 13 -2 0 -14 -5 -27 -10z"/>
<path d="M13321 1979 c-34 -14 -50 -39 -51 -80 0 -47 33 -79 81 -79 87 0 114
122 34 156 -19 8 -36 14 -37 13 -2 0 -14 -5 -27 -10z"/>
<path d="M12720 1860 c0 -68 -1 -70 -25 -70 -24 0 -25 -3 -25 -55 0 -51 2 -55
24 -55 23 0 23 -1 28 -138 4 -122 7 -143 27 -176 28 -45 86 -76 143 -76 48 0
125 31 134 54 5 14 -28 90 -45 100 -5 3 -14 -1 -21 -9 -18 -22 -67 -19 -80 4
-5 11 -10 69 -10 130 l0 111 60 0 60 0 0 55 0 55 -60 0 -60 0 0 70 0 70 -75 0
-75 0 0 -70z"/>
<path d="M5917 1790 c-128 -32 -209 -150 -194 -282 20 -170 210 -269 371 -193
29 13 63 36 76 50 l23 25 -29 37 c-47 57 -58 61 -89 30 -91 -91 -239 -3 -205
122 22 84 129 115 203 58 21 -15 41 -26 45 -23 4 2 22 24 39 49 l32 44 -22 21
c-54 51 -174 80 -250 62z"/>
<path d="M6625 1794 c-90 -22 -151 -67 -186 -136 -60 -118 -17 -267 97 -334
66 -39 170 -45 242 -14 155 67 202 258 98 395 -46 60 -178 107 -251 89z m114
-149 c76 -64 56 -195 -33 -225 -46 -15 -80 -4 -116 36 -37 43 -41 110 -10 162
35 57 108 69 159 27z"/>
<path d="M7416 1790 c-16 -5 -39 -19 -52 -31 l-24 -22 0 26 c0 27 -1 27 -70
27 l-70 0 0 -245 0 -245 70 0 70 0 0 128 c0 70 5 144 10 164 21 73 103 104
137 51 15 -22 19 -55 21 -185 l4 -158 69 0 69 0 0 128 c0 70 5 144 10 164 22
76 102 101 144 45 19 -25 21 -45 25 -183 l3 -154 70 0 70 0 -4 188 c-2 154 -6
193 -20 219 -55 100 -211 119 -306 38 -29 -26 -41 -31 -45 -21 -18 47 -121 84
-181 66z"/>
<path d="M8486 1790 c-16 -5 -39 -19 -52 -31 l-24 -22 0 26 c0 27 -1 27 -70
27 l-70 0 0 -245 0 -245 70 0 70 0 0 128 c0 70 5 144 10 164 21 73 103 104
137 51 15 -22 19 -55 21 -185 l4 -158 69 0 69 0 0 128 c0 70 5 144 10 164 22
76 102 101 144 45 19 -25 21 -45 25 -183 l3 -154 70 0 70 0 -4 188 c-2 154 -6
193 -20 219 -55 100 -211 119 -306 38 -29 -26 -41 -31 -45 -21 -18 47 -121 84
-181 66z"/>
<path d="M10307 1786 c-21 -8 -47 -22 -58 -32 -18 -16 -19 -16 -19 9 0 27 -1
27 -70 27 l-70 0 0 -245 0 -245 69 0 69 0 3 154 c4 138 6 158 25 183 29 38 76
51 108 29 36 -23 46 -73 46 -228 l0 -138 71 0 71 0 -4 188 c-3 175 -5 189 -26
224 -44 70 -138 102 -215 74z"/>
<path d="M11457 1790 c-128 -32 -209 -150 -194 -282 20 -170 210 -269 371
-193 29 13 63 36 76 50 l23 25 -29 37 c-47 57 -58 61 -89 30 -91 -91 -239 -3
-205 122 22 84 129 115 203 58 21 -15 41 -26 45 -23 4 2 22 24 39 49 l32 44
-22 21 c-54 51 -174 80 -250 62z"/>
<path d="M12120 1786 c-30 -6 -74 -22 -97 -35 -42 -24 -42 -25 -27 -51 9 -14
24 -36 33 -48 l16 -22 43 21 c65 32 125 36 151 10 39 -39 28 -48 -66 -53 -146
-7 -207 -52 -207 -151 0 -68 26 -113 84 -145 61 -32 156 -28 195 8 l25 23 0
-21 c0 -21 5 -22 70 -22 l70 0 0 173 c0 94 -5 189 -10 209 -14 50 -67 94 -130
107 -61 13 -79 13 -150 -3z"/>
<path d="M13905 1794 c-90 -22 -151 -67 -186 -136 -60 -118 -17 -267 97 -334
66 -39 170 -45 242 -14 155 67 202 258 98 395 -46 60 -178 107 -251 89z m114
-149 c76 -64 56 -195 -33 -225 -46 -15 -80 -4 -116 36 -37 43 -41 110 -10 162
35 57 108 69 159 27z"/>
<path d="M14697 1786 c-21 -8 -47 -22 -58 -32 -18 -16 -19 -16 -19 9 0 27 -1
27 -70 27 l-70 0 0 -245 0 -245 69 0 69 0 3 154 c4 138 6 158 25 183 29 38 76
51 108 29 36 -23 46 -73 46 -228 l0 -138 71 0 71 0 -4 188 c-3 175 -5 189 -26
224 -44 70 -138 102 -215 74z"/>
<path d="M9322 1608 c4 -210 13 -241 81 -286 34 -23 52 -27 108 -27 54 0 73 4
98 23 30 22 31 22 31 2 0 -18 6 -20 75 -20 l75 0 0 245 0 245 -75 0 -75 0 0
-155 c0 -155 0 -155 -27 -185 -38 -42 -87 -44 -120 -6 -22 26 -23 34 -23 187
l0 159 -76 0 -76 0 4 -182z"/>
<path d="M10850 1545 l0 -245 70 0 70 0 0 245 0 245 -70 0 -70 0 0 -245z"/>
<path d="M13280 1545 l0 -245 70 0 70 0 0 245 0 245 -70 0 -70 0 0 -245z"/>
</g>
</svg>
