<?xml version="1.0" standalone="no"?>
<!DOCTYPE svg PUBLIC "-//W3C//DTD SVG 20010904//EN"
 "http://www.w3.org/TR/2001/REC-SVG-20010904/DTD/svg10.dtd">
<svg version="1.0" xmlns="http://www.w3.org/2000/svg"
 width="500.000000pt" height="500.000000pt" viewBox="0 0 500.000000 500.000000"
 preserveAspectRatio="xMidYMid meet">
<metadata>
Created by potrace 1.15, written by Peter Selinger 2001-2017
</metadata>
<g transform="translate(0.000000,500.000000) scale(0.100000,-0.100000)"
fill="#000000" stroke="none">
<path d="M0 2500 l0 -2500 2500 0 2500 0 0 2500 0 2500 -2500 0 -2500 0 0
-2500z m4760 0 l0 -2260 -2260 0 -2260 0 0 2260 0 2260 2260 0 2260 0 0 -2260z"/>
<path d="M1374 3196 c-138 -32 -266 -107 -369 -218 -122 -132 -174 -258 -182
-449 -7 -146 13 -252 67 -364 116 -239 345 -386 625 -401 363 -20 669 196 756
533 23 93 25 266 4 368 -47 222 -239 432 -470 511 -70 24 -97 28 -225 31 -97
1 -165 -2 -206 -11z m352 -304 c231 -118 311 -440 163 -661 -150 -225 -435
-252 -613 -60 -91 98 -126 186 -126 319 0 195 120 370 293 426 27 9 75 13 132
11 78 -3 98 -8 151 -35z"/>
<path d="M2550 2480 l0 -700 160 0 160 0 1 423 1 422 181 -367 182 -368 98 0
99 0 183 373 184 372 0 -427 1 -428 160 0 160 0 0 700 0 700 -216 -2 -216 -3
-176 -373 c-96 -204 -178 -370 -181 -367 -3 3 -82 171 -177 373 l-171 367
-217 3 -216 2 0 -700z"/>
</g>
</svg>
